<svg width="58" height="12" viewBox="0 0 58 12" fill="none" xmlns="http://www.w3.org/2000/svg">
<path d="M25.658 10V8.95H27.03V1.25H25.658V0.199999H30.572C31.1413 0.199999 31.6453 0.302666 32.084 0.508C32.532 0.713333 32.8773 1.00267 33.12 1.376C33.372 1.74 33.498 2.16933 33.498 2.664V2.776C33.498 3.23333 33.4093 3.61133 33.232 3.91C33.0547 4.19933 32.8447 4.428 32.602 4.596C32.3593 4.75467 32.1213 4.87133 31.888 4.946V5.142C32.1213 5.198 32.364 5.31 32.616 5.478C32.868 5.63667 33.078 5.86533 33.246 6.164C33.4233 6.46267 33.512 6.84067 33.512 7.298V7.438C33.512 7.97 33.3813 8.432 33.12 8.824C32.868 9.20667 32.518 9.50067 32.07 9.706C31.6313 9.902 31.1273 10 30.558 10H25.658ZM28.206 8.936H30.432C31.048 8.936 31.5193 8.79133 31.846 8.502C32.1727 8.21267 32.336 7.82067 32.336 7.326V7.2C32.336 6.70533 32.1727 6.31333 31.846 6.024C31.5193 5.73467 31.048 5.59 30.432 5.59H28.206V8.936ZM28.206 4.526H30.474C31.034 4.526 31.482 4.386 31.818 4.106C32.154 3.81667 32.322 3.43867 32.322 2.972V2.832C32.322 2.356 32.154 1.978 31.818 1.698C31.4913 1.40867 31.0433 1.264 30.474 1.264H28.206V4.526ZM37.5179 10.196C37.0419 10.196 36.6079 10.112 36.2159 9.944C35.8239 9.776 35.5159 9.53333 35.2919 9.216C35.0679 8.89867 34.9559 8.51133 34.9559 8.054C34.9559 7.58733 35.0679 7.20467 35.2919 6.906C35.5159 6.598 35.8239 6.36933 36.2159 6.22C36.6079 6.06133 37.0465 5.982 37.5319 5.982H39.8419V5.478C39.8419 4.99267 39.6972 4.61 39.4079 4.33C39.1279 4.05 38.7079 3.91 38.1479 3.91C37.5972 3.91 37.1679 4.04533 36.8599 4.316C36.5519 4.57733 36.3419 4.932 36.2299 5.38L35.1939 5.044C35.3059 4.66133 35.4832 4.316 35.7259 4.008C35.9685 3.69067 36.2905 3.43867 36.6919 3.252C37.1025 3.056 37.5925 2.958 38.1619 2.958C39.0392 2.958 39.7205 3.18667 40.2059 3.644C40.6912 4.092 40.9339 4.72667 40.9339 5.548V8.642C40.9339 8.922 41.0645 9.062 41.3259 9.062H41.9559V10H40.9899C40.6819 10 40.4345 9.916 40.2479 9.748C40.0612 9.57067 39.9679 9.33733 39.9679 9.048V8.978H39.7999C39.6972 9.15533 39.5572 9.342 39.3799 9.538C39.2119 9.72467 38.9785 9.87867 38.6799 10C38.3812 10.1307 37.9939 10.196 37.5179 10.196ZM37.6439 9.244C38.2972 9.244 38.8245 9.05267 39.2259 8.67C39.6365 8.278 39.8419 7.732 39.8419 7.032V6.878H37.5739C37.1352 6.878 36.7712 6.976 36.4819 7.172C36.2019 7.35867 36.0619 7.64333 36.0619 8.026C36.0619 8.40867 36.2065 8.70733 36.4959 8.922C36.7945 9.13667 37.1772 9.244 37.6439 9.244ZM46.4292 10.196C45.7665 10.196 45.1692 10.056 44.6372 9.776C44.1145 9.48667 43.6992 9.076 43.3912 8.544C43.0925 8.012 42.9432 7.382 42.9432 6.654V6.5C42.9432 5.76267 43.0925 5.13267 43.3912 4.61C43.6992 4.078 44.1145 3.672 44.6372 3.392C45.1692 3.10267 45.7665 2.958 46.4292 2.958C47.0825 2.958 47.6379 3.07933 48.0952 3.322C48.5619 3.56467 48.9259 3.88667 49.1872 4.288C49.4579 4.68933 49.6305 5.11867 49.7052 5.576L48.6272 5.8C48.5805 5.464 48.4685 5.156 48.2912 4.876C48.1232 4.596 47.8852 4.372 47.5772 4.204C47.2692 4.036 46.8912 3.952 46.4432 3.952C45.9859 3.952 45.5752 4.05467 45.2112 4.26C44.8565 4.46533 44.5719 4.75933 44.3572 5.142C44.1519 5.52467 44.0492 5.982 44.0492 6.514V6.64C44.0492 7.172 44.1519 7.62933 44.3572 8.012C44.5719 8.39467 44.8565 8.68867 45.2112 8.894C45.5752 9.09933 45.9859 9.202 46.4432 9.202C47.1245 9.202 47.6425 9.02467 47.9972 8.67C48.3612 8.31533 48.5852 7.87667 48.6692 7.354L49.7612 7.592C49.6585 8.04 49.4719 8.46467 49.2012 8.866C48.9305 9.26733 48.5619 9.58933 48.0952 9.832C47.6379 10.0747 47.0825 10.196 46.4292 10.196ZM51.6464 10V0.199999H52.7524V5.968H52.9484L56.0844 3.154H57.6244L53.8304 6.486L57.7364 10H56.2104L52.9484 7.018H52.7524V10H51.6464Z" fill="#292929"/>
<path d="M25 11.75H58.0164V12.45H25V11.75Z" fill="#292929"/>
<path d="M1.00016 5.81967L13 5.81967" stroke="#212121" stroke-width="1.5" stroke-linecap="round" stroke-linejoin="round"/>
<path d="M5.83997 10.6391L1.00003 5.81994L5.83997 1" stroke="#212121" stroke-width="1.5" stroke-linecap="round" stroke-linejoin="round"/>
</svg>
