<svg width="206" height="295" viewBox="0 0 206 295" fill="none" xmlns="http://www.w3.org/2000/svg">
<path d="M206 122.036C206 175.106 161.327 295 106.365 295C51.4033 295 0 175.106 0 122.036C0 68.9661 51.4033 0 106.365 0C161.327 0 206 68.9661 206 122.036Z" fill="white"/>
<path d="M205.5 122.036C205.5 148.472 194.361 191.637 176.345 228.198C167.339 246.474 156.63 263.068 144.764 275.086C132.893 287.108 119.917 294.5 106.365 294.5C92.8093 294.5 79.4096 287.104 66.9051 275.077C54.407 263.056 42.8578 246.458 33.0121 228.182C13.3133 191.616 0.5 148.458 0.5 122.036C0.5 95.6451 13.2904 65.245 32.9574 41.4352C52.6276 17.6214 79.0911 0.5 106.365 0.5C133.63 0.5 158.408 17.6116 176.394 41.4182C194.378 65.2206 205.5 95.6261 205.5 122.036Z" stroke="#FF0000" stroke-opacity="0.8"/>
<path d="M27 107L39.4359 103.003C40.4769 102.668 41.5435 102.419 42.6251 102.259L50.9017 101.033C53.288 100.68 55.7129 100.673 58.101 101.014L66.7147 102.245C67.9025 102.415 69.0726 102.691 70.2109 103.07L82 107" stroke="#FF0000"/>
<path d="M141 211L125.869 218.867C124.422 219.62 122.889 220.192 121.304 220.572L112.722 222.629C108.959 223.531 105.037 223.546 101.267 222.675L92.3121 220.606C90.5725 220.204 88.8945 219.571 87.323 218.723L73 211" stroke="#FF0000"/>
<path d="M124 106.5L136.436 102.503C137.477 102.168 138.544 101.919 139.625 101.759L147.902 100.533C150.288 100.18 152.713 100.173 155.101 100.514L163.715 101.745C164.903 101.915 166.073 102.191 167.211 102.57L179 106.5" stroke="#FF0000"/>
</svg>
