<svg width="50" height="50" viewBox="0 0 50 50" fill="none" xmlns="http://www.w3.org/2000/svg">
<path d="M21.5 3.17543C23.6658 1.925 26.3342 1.925 28.5 3.17543L42.1506 11.0566C44.3164 12.3071 45.6506 14.6179 45.6506 17.1188V32.8812C45.6506 35.3821 44.3164 37.6929 42.1506 38.9434L28.5 46.8246C26.3342 48.075 23.6658 48.075 21.5 46.8246L7.84936 38.9434C5.68356 37.6929 4.34937 35.3821 4.34937 32.8812V17.1188C4.34937 14.6179 5.68356 12.3071 7.84936 11.0566L21.5 3.17543Z" stroke="#7613D9" stroke-width="2"/>
<path d="M34.0756 34.3045L32.0722 32.2238L16.6966 33.8909L15.0778 34.0899C14.4201 34.1708 13.867 33.6012 13.9673 32.9461L14.988 26.2754L15.4762 23.2076L15.9624 21.1804L16.4277 19.3499C16.4429 19.29 16.4643 19.2302 16.4904 19.1741C18.4219 15.0321 19.6511 14.0848 25.0282 14.0848C31.34 14.0848 31.8321 17.1523 33.0506 21.1804L34.271 26.2754L35.4914 30.6662L36.0998 32.2618C36.513 33.3456 35.7126 34.5074 34.5527 34.5074C34.3727 34.5074 34.2005 34.4341 34.0756 34.3045Z" fill="#7613D9"/>
<path d="M30.5283 21.3137L31.8044 28.5286C31.9052 29.0989 31.5022 29.6353 30.9264 29.6971L25.2794 30.3031L19.5617 31.2923C18.2258 31.5234 17.0519 30.3865 17.2401 29.0439L18.3239 21.3137C19.3653 18.2408 21.821 16.6189 24.9468 16.6189C28.5919 16.6189 29.4869 18.2408 30.5283 21.3137Z" fill="#EFEFEF"/>
<path d="M21.2934 27.6756C22.0504 27.5528 22.4404 27.2981 22.5311 26.5873C22.4404 25.8576 22.0504 25.4908 21.2934 25.387C20.5859 25.4908 20.2983 25.8576 20.1582 26.5873C20.2983 27.2981 20.5859 27.5528 21.2934 27.6756Z" fill="#7613D9"/>
</svg>
