<svg width="25" height="25" viewBox="0 0 25 25" fill="none" xmlns="http://www.w3.org/2000/svg">
<circle cx="12.5" cy="12.5" r="12.5" fill="white"/>
<path d="M12.5 25C19.395 25 25 19.395 25 12.5C25 5.605 19.395 0 12.5 0C5.605 0 0 5.605 0 12.5C0 19.395 5.605 25 12.5 25ZM5.895 12.01C6.3325 11.635 6.98998 11.6875 7.36498 12.115L10.1675 15.385L17.6675 7.34248C18.0625 6.925 18.72 6.90498 19.135 7.28999C19.5625 7.68501 19.5825 8.34249 19.1875 8.76997L10.895 17.6575C10.6975 17.865 10.415 17.99 10.125 17.99H10.1049C9.81247 17.98 9.53245 17.845 9.34495 17.625L5.77995 13.48C5.40739 13.0425 5.45745 12.375 5.89494 12.01L5.895 12.01Z" fill="#32B346"/>
</svg>
