<svg width="36" height="40" viewBox="0 0 36 40" fill="none" xmlns="http://www.w3.org/2000/svg">
<path d="M13.4884 30.6508V27.3021C13.4884 26.9766 13.3488 26.6974 13.0697 26.5579C12.2791 26.0928 11.814 25.2091 11.814 24.3253V15.5812C11.814 14.1394 12.9768 12.9766 14.4186 12.9766H20.5581C21.9999 12.9766 23.1627 14.1394 23.1627 15.5812V24.3718C23.1627 25.2556 22.6976 26.1393 21.907 26.6045C21.6279 26.7441 21.4883 27.0231 21.4883 27.3486V32.0462C22.0931 31.9998 22.6511 31.9066 23.2092 31.7672V27.8137C24.279 26.9765 24.8836 25.7207 24.8836 24.3719V20.4649L24.8837 19.5347C24.9302 19.5347 24.9767 19.5347 25.0233 19.5812C26.9302 20.0928 28.8372 20.651 30.5581 21.2555L33.2559 22.1858L31.4417 19.9068C31.2092 19.5813 30.9766 19.3488 30.7905 19.1162C29.7674 17.8605 28.5579 16.651 27.3022 15.4883L26.8836 15.1161L26.4184 15.3487C25.8604 15.5812 25.3486 15.8138 24.837 16.0463V15.6277C24.837 15.4416 24.837 15.3022 24.7905 15.1161C24.558 12.9766 22.6975 11.3022 20.465 11.3022H14.372C12.0929 11.3022 10.186 13.1162 10.0464 15.3487V15.6278V16.2325C4.093 17.6278 0 20.7441 0 24.5115C0 24.9766 0.372153 25.3953 0.883754 25.3953C1.39534 25.3953 1.76751 25.0231 1.76751 24.5115C1.76751 21.7673 5.20939 19.3022 10.093 18.0464V24.372C10.093 25.7208 10.7442 26.9766 11.7674 27.8139L11.7673 30.2324C12.0928 30.3253 12.4649 30.4184 12.7904 30.4649L13.4884 30.6508Z" fill="#D5D5D5"/>
<path d="M21.3954 35.6744C21.3954 37.1162 20.2326 38.279 18.7908 38.279H16.0466C14.6048 38.279 13.442 37.1162 13.442 35.6744V35.3489C12.8373 35.2559 12.2792 35.1628 11.7212 35.0698V35.6745C11.7212 38.0466 13.6746 40.0001 16.0467 40.0001H18.791C21.163 40.0001 23.1165 38.0467 23.1165 35.6745V35.3024C22.5584 35.3954 21.9537 35.4885 21.3957 35.535L21.3954 35.6744Z" fill="#D5D5D5"/>
<path d="M12.2327 5.20927C12.2327 8.09289 14.5582 10.4185 17.4419 10.4185C20.3256 10.4185 22.6512 8.09297 22.6512 5.20927C22.6514 2.32564 20.2793 0 17.4423 0C14.6053 0 12.2331 2.32557 12.2331 5.20927H12.2327ZM20.8838 5.20927C20.8838 7.11619 19.3488 8.69762 17.3954 8.69762C15.442 8.69762 13.9071 7.16267 13.9071 5.20927C13.9071 3.25587 15.442 1.72092 17.3954 1.72092C19.3488 1.72092 20.8838 3.25587 20.8838 5.20927Z" fill="#D5D5D5"/>
<path d="M34.1395 24.9302C33.6744 24.9302 33.2558 25.3023 33.2558 25.8139C33.2558 29.7674 26.2791 33.1162 18.0466 33.1162C16.3722 33.1162 14.7908 32.9766 13.2094 32.7441L14.6977 31.9068L12.5582 31.3952C11.6744 31.1626 10.8374 30.9765 10.0465 30.744C8.13962 30.2324 6.2327 29.6742 4.5117 29.0696L1.81396 28.1394L3.58147 30.4185C3.81403 30.744 4.00011 30.9765 4.23267 31.2091C5.25584 32.4648 6.46529 33.6743 7.72102 34.8371L8.13966 35.2092L8.65125 35.0231C9.39539 34.6976 10.1395 34.4184 10.8372 34.0464C13.0698 34.6045 15.5348 34.8837 18.093 34.8837C27.6278 34.8837 35.0696 30.9303 35.0696 25.8605C34.9766 25.3025 34.6046 24.9303 34.1395 24.9303V24.9302Z" fill="#D5D5D5"/>
</svg>
