<svg width="44" height="50" viewBox="0 0 44 50" fill="none" xmlns="http://www.w3.org/2000/svg">
<g id="Group">
<path id="Vector" d="M16.8605 38.3137V34.1277C16.8605 33.7208 16.686 33.3718 16.3372 33.1976C15.3489 32.6162 14.7675 31.5115 14.7675 30.4068V19.4766C14.7675 17.6744 16.221 16.2209 18.0233 16.2209H25.6976C27.4999 16.2209 28.9534 17.6744 28.9534 19.4766V30.4649C28.9534 31.5696 28.372 32.6743 27.3837 33.2557C27.0349 33.4302 26.8604 33.779 26.8604 34.1859V40.0579C27.6163 39.9998 28.3139 39.8834 29.0115 39.7091V34.7673C30.3488 33.7207 31.1044 32.151 31.1044 30.465V25.5813L31.1046 24.4185C31.1627 24.4185 31.2208 24.4185 31.2791 24.4766C33.6628 25.1161 36.0464 25.8139 38.1977 26.5695L41.5699 27.7323L39.3022 24.8837C39.0115 24.4768 38.7208 24.1861 38.4882 23.8954C37.2092 22.3257 35.6974 20.8139 34.1277 19.3604L33.6044 18.8952L33.0231 19.1859C32.3255 19.4766 31.6858 19.7673 31.0463 20.058V19.5347C31.0463 19.3021 31.0463 19.1278 30.9882 18.8952C30.6975 16.2209 28.3719 14.1279 25.5812 14.1279H17.965C15.1161 14.1279 12.7325 16.3954 12.5581 19.186V19.5348V20.2907C5.11625 22.0349 0 25.9302 0 30.6395C0 31.2209 0.465191 31.7442 1.10469 31.7442C1.74418 31.7442 2.20939 31.279 2.20939 30.6395C2.20939 27.2092 6.51173 24.1279 12.6163 22.5582V30.4651C12.6163 32.1512 13.4303 33.7208 14.7093 34.7674L14.7091 37.7906C15.116 37.9068 15.5812 38.0232 15.988 38.0813L16.8605 38.3137Z" fill="#7613D9" fill-opacity="0.8"/>
<path id="Vector_2" d="M26.7442 44.5929C26.7442 46.3951 25.2907 47.8486 23.4884 47.8486H20.0582C18.2559 47.8486 16.8024 46.3951 16.8024 44.5929V44.186C16.0465 44.0698 15.3489 43.9534 14.6514 43.8372V44.5931C14.6514 47.5581 17.0931 50 20.0583 50H23.4886C26.4536 50 28.8955 47.5583 28.8955 44.5931V44.1279C28.1979 44.2441 27.442 44.3605 26.7445 44.4186L26.7442 44.5929Z" fill="#7613D9" fill-opacity="0.8"/>
<path id="Vector_3" d="M15.2908 6.51159C15.2908 10.1161 18.1977 13.0232 21.8024 13.0232C25.407 13.0232 28.3139 10.1162 28.3139 6.51159C28.3141 2.90705 25.3491 0 21.8028 0C18.2566 0 15.2913 2.90696 15.2913 6.51159H15.2908ZM26.1047 6.51159C26.1047 8.89524 24.186 10.872 21.7442 10.872C19.3025 10.872 17.3838 8.95333 17.3838 6.51159C17.3838 4.06984 19.3025 2.15115 21.7442 2.15115C24.186 2.15115 26.1047 4.06984 26.1047 6.51159Z" fill="#7613D9" fill-opacity="0.8"/>
<path id="Vector_4" d="M42.6743 31.1626C42.0929 31.1626 41.5696 31.6278 41.5696 32.2673C41.5696 37.2091 32.8487 41.3951 22.5581 41.3951C20.4651 41.3951 18.4884 41.2206 16.5116 40.9299L18.372 39.8833L15.6976 39.2439C14.5929 38.9532 13.5466 38.7206 12.5581 38.4299C10.1744 37.7904 7.79075 37.0926 5.6395 36.3369L2.26733 35.1741L4.47672 38.023C4.76742 38.4299 5.00002 38.7206 5.29072 39.0113C6.56968 40.5809 8.08149 42.0927 9.65115 43.5462L10.1745 44.0114L10.8139 43.7788C11.7441 43.3719 12.6743 43.0229 13.5464 42.5579C16.3372 43.2555 19.4184 43.6045 22.6161 43.6045C34.5346 43.6045 43.8369 38.6627 43.8369 32.3255C43.7207 31.628 43.2557 31.1628 42.6743 31.1628V31.1626Z" fill="#7613D9" fill-opacity="0.8"/>
</g>
</svg>
