<svg width="40" height="32" viewBox="0 0 40 32" fill="none" xmlns="http://www.w3.org/2000/svg">
<path d="M39.7021 8.43337C39.3048 8.03613 38.6612 8.03613 38.2639 8.43337L37.2881 9.4092V5.08469C37.2881 2.28152 35.0072 0 32.2034 0H26.7798C26.2183 0 25.7628 0.455501 25.7628 1.01694C25.7628 1.57837 26.2183 2.03388 26.7798 2.03388H32.2034C33.8858 2.03388 35.2542 3.40313 35.2542 5.08469V9.4092L34.2784 8.43337C33.8812 8.03613 33.2376 8.03613 32.8403 8.43337C32.443 8.83061 32.443 9.47423 32.8403 9.87151C32.8403 9.87151 35.5474 12.5787 35.5521 12.5833C35.9262 12.9575 36.5847 12.9886 36.9902 12.5833L39.7021 9.87151C40.0993 9.47427 40.0993 8.83065 39.7021 8.43337Z" fill="#7613D9" fill-opacity="0.8"/>
<path d="M13.2205 29.8301H7.7968C6.11438 29.8301 4.74599 28.4608 4.74599 26.7793V22.4547L5.72181 23.4306C6.11609 23.8248 6.76354 23.8268 7.15974 23.4306C7.55698 23.0333 7.55698 22.3897 7.15974 21.9924L4.4479 19.2806C4.05066 18.8834 3.40705 18.8834 3.00976 19.2806L0.29793 21.9924C-0.0993101 22.3897 -0.0993101 23.0333 0.29793 23.4306C0.69517 23.8278 1.33879 23.8278 1.73607 23.4306L2.71211 22.4547V26.7793C2.71211 29.5824 4.99304 31.8639 7.7968 31.8639H13.2205C13.7819 31.8639 14.2374 31.4084 14.2374 30.847C14.2374 30.2856 13.7819 29.8301 13.2205 29.8301Z" fill="#7613D9" fill-opacity="0.8"/>
<path d="M23.0509 17.2879C23.0509 15.6063 21.6825 14.2371 20.0001 14.2371C18.3177 14.2371 16.9493 15.6063 16.9493 17.2879C16.9493 18.9694 18.3177 20.3387 20.0001 20.3387C21.6825 20.3387 23.0509 18.9694 23.0509 17.2879ZM18.9832 17.2879C18.9832 16.7277 19.4393 16.2709 20.0001 16.2709C20.5609 16.2709 21.017 16.7277 21.017 17.2879C21.017 17.848 20.5609 18.3048 20.0001 18.3048C19.4393 18.3048 18.9832 17.848 18.9832 17.2879Z" fill="#7613D9" fill-opacity="0.8"/>
<path d="M26.1016 10.8476H25.2258C24.8385 10.8476 24.4902 10.6317 24.3167 10.2861L24.0843 9.82131C23.5639 8.78192 22.5177 8.13574 21.3559 8.13574H19.9013C18.7379 8.13574 17.6926 8.78192 17.1723 9.82261L16.9405 10.2862C16.767 10.6317 16.4187 10.8476 16.0308 10.8476H15.5933V10.1815C15.5933 9.62009 15.1378 9.16461 14.5764 9.16461C14.0149 9.16461 13.5594 9.62011 13.5594 10.1815V10.882C12.0383 11.0534 10.8476 12.3328 10.8476 13.8984V20.678C10.8476 22.3596 12.216 23.7288 13.8984 23.7288H15.9323C16.4937 23.7288 16.9492 23.2733 16.9492 22.7119C16.9492 22.1505 16.4937 21.695 15.9323 21.695H13.8984C13.3376 21.695 12.8815 21.2382 12.8815 20.678V13.8984C12.8815 13.3383 13.3376 12.8815 13.8984 12.8815H16.031C17.1943 12.8815 18.2397 12.2353 18.76 11.1946L18.9917 10.7311C19.1653 10.3855 19.5136 10.1696 19.9015 10.1696H21.3559C21.7431 10.1696 22.0921 10.3855 22.2656 10.7311L22.4973 11.1946C23.0177 12.2353 24.063 12.8815 25.2257 12.8815H26.1015C26.6623 12.8815 27.1185 13.3383 27.1185 13.8984V20.678C27.1185 21.2382 26.6623 21.695 26.1015 21.695H19.9999C19.4385 21.695 18.983 22.1505 18.983 22.7119C18.983 23.2733 19.4385 23.7288 19.9999 23.7288H26.1015C27.784 23.7288 29.1524 22.3596 29.1524 20.678V13.8984C29.1524 12.2169 27.784 10.8476 26.1015 10.8476L26.1016 10.8476Z" fill="#7613D9" fill-opacity="0.8"/>
</svg>
