<svg width="25" height="25" viewBox="0 0 25 25" fill="none" xmlns="http://www.w3.org/2000/svg">
<circle cx="12.5" cy="12.5" r="12.5" fill="white"/>
<path d="M12.5 0C5.60526 0 0 5.60526 0 12.5C0 19.3947 5.60526 25 12.5 25C19.3947 25 25 19.3947 25 12.5C25 5.60526 19.3947 0 12.5 0ZM17.8421 15.1579C18.579 15.8948 18.579 17.1053 17.8421 17.8421C17.4737 18.2105 17 18.3947 16.5 18.3947C16 18.3947 15.5264 18.2105 15.1579 17.8421L12.5 15.1842L9.84215 17.8421C9.47371 18.2105 9.00009 18.3947 8.50007 18.3947C8.00004 18.3947 7.52643 18.2105 7.15798 17.8421C6.4211 17.1052 6.4211 15.8947 7.15798 15.1579L9.81588 12.5L7.15798 9.8421C6.4211 9.10522 6.4211 7.89471 7.15798 7.15789C7.89487 6.42101 9.10537 6.42101 9.84219 7.15789L12.5001 9.81579L15.158 7.15789C15.8949 6.42101 17.1054 6.42101 17.8422 7.15789C18.5791 7.89478 18.5791 9.10528 17.8422 9.8421L15.1843 12.5L17.8421 15.1579Z" fill="#FF0000"/>
</svg>
